<svg width="24" height="24" viewBox="0 0 24 24" fill="none" xmlns="http://www.w3.org/2000/svg">
<path fill-rule="evenodd" clip-rule="evenodd" d="M12 24C18.6274 24 24 18.6274 24 12C24 5.37258 18.6274 0 12 0C5.37258 0 0 5.37258 0 12C0 18.6274 5.37258 24 12 24Z" fill="#FF5B5B"/>
<path fill-rule="evenodd" clip-rule="evenodd" d="M13.5209 14H10.4791L10 4H14L13.5209 14ZM10 18C10 17.4162 10.1907 16.9369 10.5722 16.5621C10.9537 16.1874 11.4296 16 12 16C12.5704 16 13.0463 16.1874 13.4278 16.5621C13.8093 16.9369 14 17.4162 14 18C14 18.5838 13.8093 19.0631 13.4278 19.4379C13.0463 19.8126 12.5704 20 12 20C11.4296 20 10.9537 19.8126 10.5722 19.4379C10.1907 19.0631 10 18.5838 10 18Z" fill="white"/>
</svg>
